<?xml version="1.0" encoding="UTF-8"?>
<!DOCTYPE svg PUBLIC "-//W3C//DTD SVG 1.1//EN" "http://www.w3.org/Graphics/SVG/1.1/DTD/svg11.dtd">
<!-- Creator: CorelDRAW 2020 (64-Bit) -->
<svg xmlns="http://www.w3.org/2000/svg" xml:space="preserve" width="175px" height="80px" version="1.1" shape-rendering="geometricPrecision" text-rendering="geometricPrecision" image-rendering="optimizeQuality" fill-rule="evenodd" clip-rule="evenodd"
viewBox="0 0 175 80"
 xmlns:xlink="http://www.w3.org/1999/xlink"
 xmlns:xodm="http://www.corel.com/coreldraw/odm/2003"
 xmlns:cc="http://creativecommons.org/ns#"
 xmlns:dc="http://purl.org/dc/elements/1.1/"
 xmlns:rdf="http://www.w3.org/1999/02/22-rdf-syntax-ns#">
 <defs>
   <linearGradient id="id0" gradientUnits="userSpaceOnUse" x1="104.42" y1="16.26" x2="104.42" y2="65.1">
    <stop offset="0" stop-opacity="1" stop-color="black"/>
    <stop offset="1" stop-opacity="1" stop-color="#00005C"/>
   </linearGradient>
   <linearGradient id="id1" gradientUnits="userSpaceOnUse" x1="30.43" y1="34.77" x2="60.03" y2="34.77">
    <stop offset="0" stop-opacity="1" stop-color="#FFE100"/>
    <stop offset="1" stop-opacity="1" stop-color="#DC2314"/>
   </linearGradient>
   <linearGradient id="id2" gradientUnits="userSpaceOnUse" x1="57.98" y1="34.77" x2="82.99" y2="34.77">
    <stop offset="0" stop-opacity="1" stop-color="#FFE100"/>
    <stop offset="1" stop-opacity="1" stop-color="#DC2314"/>
   </linearGradient>
   <linearGradient id="id3" gradientUnits="userSpaceOnUse" x1="84.51" y1="37.65" x2="124.29" y2="37.65">
    <stop offset="0" stop-opacity="1" stop-color="#FFE100"/>
    <stop offset="1" stop-opacity="1" stop-color="#DC2314"/>
   </linearGradient>
   <linearGradient id="id4" gradientUnits="userSpaceOnUse" x1="113.77" y1="35.89" x2="139.65" y2="35.89">
    <stop offset="0" stop-opacity="1" stop-color="#FFE100"/>
    <stop offset="1" stop-opacity="1" stop-color="#DC2314"/>
   </linearGradient>
   <linearGradient id="id5" gradientUnits="userSpaceOnUse" x1="141.61" y1="36.51" x2="161.59" y2="36.51">
    <stop offset="0" stop-opacity="1" stop-color="#FFE100"/>
    <stop offset="1" stop-opacity="1" stop-color="#DC2314"/>
   </linearGradient>
   <linearGradient id="id6" gradientUnits="userSpaceOnUse" x1="159.7" y1="37.05" x2="187.19" y2="37.05">
    <stop offset="0" stop-opacity="1" stop-color="#FFE100"/>
    <stop offset="1" stop-opacity="1" stop-color="#DC2314"/>
   </linearGradient>
 </defs>
 <g id="Layer_x0020_1">
  <metadata id="CorelCorpID_0Corel-Layer"/>
  <path fill="#FEFEFE" d="M163.41 57.99l5.28 0 -7.53 12.78 -9.52 0 -3.49 2.97 -1.91 -1.37 -1.99 2.91 -12.62 -0.27c-0.2,0.05 -0.41,0.09 -0.6,0.12l-2.09 0.37 -1.46 -0.9c-0.13,0.06 -0.26,0.12 -0.38,0.17l-2.94 1.25 -3.57 -2.65c-1.96,1.13 -4.12,1.85 -6.49,1.85l-3.24 0 -2.49 -4.45 -3.56 0c-1.98,0.48 -4.12,0.33 -6.41,0.16l-0.79 -0.05 -0.29 -0.11 -0.06 0 0.01 -0.02 -0.41 -0.15c-3.43,-1.27 -6.68,-2.87 -10,-4.36 -0.16,0.08 -0.32,0.15 -0.49,0.22 -4.2,1.69 -8.45,3.35 -12.54,5.3 -3.57,1.7 -9.37,3.04 -13.27,4.02 -3.53,0.88 -7.16,1.75 -10.75,2.4 -6.52,1.17 -14.33,2.35 -20.95,1.57 -8.44,-0.99 -15.46,-5.89 -13.39,-14.11 -2.88,0.57 -4.81,1.29 -7.9,-0.2l-0.9 -0.43 -0.68 -0.72c-1.6,-1.67 -2.84,-3.66 -3.72,-5.77 -1.08,-1.62 -1.92,-3.41 -2.49,-5.26l-0.28 -0.9 0.05 -0.94c0.29,-5.81 2.7,-10.77 3.4,-16.24 -0.05,-3.91 0.76,-7.5 1.25,-11.34 0.14,-3.81 2.02,-7.18 4.68,-9.88 2.39,-2.41 4.39,-2.29 7.1,-2.11 1.57,-1 3.09,-1.63 5.34,-1.4 1.76,0.17 3.28,0.79 4.57,1.71 1.63,-2.18 3.35,-3.99 6.25,-4.93l0.61 -0.19 0.65 -0.06c2.32,-0.19 4.52,0.76 6.17,2.33l0.22 0.21 0.19 0.23c0.94,1.12 1.78,2.34 2.48,3.63 0.93,-0.59 1.83,-1.18 2.62,-1.91 2.83,-3.36 7.63,-4.92 11.73,-3.04 1.68,0.57 3.18,1.57 4.37,2.85 1.46,-1.35 3.18,-2.43 5.1,-3.15 5.1,-2.03 8.11,-0.26 12.68,0.31 2.62,-0.12 5.16,0.89 7.09,2.64 0.55,0.17 1.06,0.32 1.64,0.59l0.26 0.13 0.24 0.15c0.58,0.35 1.12,0.74 1.64,1.17 2.3,-1.37 5.18,-1.77 7.85,-1.11 0.46,-0.16 0.93,-0.32 1.39,-0.49 2.41,-0.83 4.83,-1.63 7.25,-2.42 3.47,-1.14 7.01,-2.36 10.5,-3.38 7.31,-2.13 14.06,-3.66 21.58,-4.85 4.36,-0.7 8.77,-0.91 13.19,-0.86 2.79,0.03 5.01,0.02 7.7,0.86 2.95,0.93 6.1,2.7 7.83,5.3 2,3.03 1.68,7.75 0.13,10.93 -0.14,0.28 -0.3,0.6 -0.49,0.93 0.92,0.98 1.79,1.78 2.64,3.19 0.53,0.85 0.97,1.73 1.33,2.66 0.17,0.24 0.33,0.49 0.49,0.74 2.7,4.27 2.43,8.12 3.06,12.77 0.92,4.84 -1.17,9.5 -4.17,13.24 -1.7,2.64 -3.8,5.01 -6.24,7.01l-0.13 0.11 -0.13 0.09c-0.07,0.05 -0.14,0.1 -0.2,0.15z"/>
  <path fill="#EC4B88" fill-rule="nonzero" d="M90.68 20.53c0,0 -1.37,0.37 -1.58,0.6 0,0 0.77,1.03 0.77,1.03 0,0 0.81,-1.63 0.81,-1.63z"/>
  <path fill="#EC4B88" fill-rule="nonzero" d="M117.28 43.76l-1.08 3.18 -0.04 1.66 6.47 -3.25 0.19 -4.53c-1.45,0.9 -3.78,2.16 -5.53,2.94l-0.01 0zm-82.32 12.36l-8.4 2c-2.08,2.14 -3.93,4.4 -5.15,7.1 -2.26,5.03 0.63,8.29 8.1,9.16 4.47,0.53 10.59,0.05 19.31,-1.52 6.02,-1.08 19.5,-4.48 22.62,-5.97 4.14,-1.97 9.05,-3.89 12.85,-5.43 0.57,-0.23 -0.74,-1.75 -1.15,-1.66 -1.05,0.21 -1.45,0.2 -9.12,2.26 -8.85,2.37 -17.76,4.66 -26.9,5.56 -13.16,1.31 -16.94,-3.3 -11.55,-10.21l-0.61 -1.29 0 0zm43.34 -0.08c-4.37,1.4 -8.96,2.48 -13.44,3.48 -7.46,1.78 -14.93,2.32 -17.46,1.25 -1.37,-0.58 -2.47,-2.72 -2.47,-3.59l-7.55 1.88 -0.5 1.08c-0.63,1.4 -0.62,1.64 0.1,2.92 0.76,1.33 2.65,2.27 5.18,2.57 3.72,0.44 13.2,-0.47 17.69,-1.71l20.2 -6.65 -1.75 -1.23 0 0zm4.37 -15.45l-1.15 0.68 3.55 2.62 4.16 -0.03 -0.14 -2.49c-2.04,0.13 -6.42,-0.78 -6.42,-0.78l0 0zm24.04 -17.57c-1.28,0.38 -4.72,1.31 -4.72,1.31l0.26 2.07c1.55,-0.39 2.79,-0.67 4.08,-1.06l0.38 -2.32 0 0zm44.81 -17.61c-4.11,-0.05 -8.19,0.14 -12.25,0.79 -7.82,1.24 -12.87,2.36 -20.89,4.7 -6.91,2.01 -13.8,4.47 -20.69,6.92l1.55 2.76c7.42,-3.1 13.87,-4.69 20.86,-6.39 8.45,-2.07 17.25,-4.31 25.96,-2.87 4.44,0.74 6.01,2.93 5.1,6.09 -0.16,0.54 -0.7,1.68 -0.9,1.8l9.17 -0.19c0.44,-0.26 2.11,-2.7 2.88,-4.26 0.87,-1.79 0.97,-4.49 0.21,-5.64 -0.8,-1.21 -2.69,-2.41 -4.9,-3.1 -1.62,-0.51 -2.36,-0.56 -6.1,-0.61l0 0zm-30.15 28.01c0,0 -1.18,0.83 -1.4,0.99l-1.33 4.72c1.62,-0.71 3.18,-1.89 4.51,-3.02l0.18 -2.39 -1.96 -0.3 0 0z"/>
  <path fill="url(#id0)" fill-rule="nonzero" d="M35.67 15.77c-2.09,0.68 -3.34,2.68 -4.54,4.38 -0.97,1.26 -1.97,2.54 -2.29,4.12 -0.72,2.84 -0.77,5.79 -1.18,8.67 0.07,1.43 -0.26,0.95 -0.66,-0.03 -0.8,-1.43 -1.16,-3.27 -0.15,-4.7 0.68,-1.27 0.89,-2.83 0.21,-4.14 -0.61,-2.15 -2,-4.59 -4.47,-4.84 -1.22,-0.11 -2.16,0.79 -3.07,1.43 -1.58,0.37 -3.55,-0.86 -4.89,0.48 -1.72,1.75 -3.11,3.98 -3.13,6.51 -0.46,3.72 -1.34,7.42 -1.23,11.2 -0.64,5.5 -3.14,10.7 -3.42,16.24 0.62,2.02 1.68,3.98 3.13,5.5 1.59,0.76 3.32,-0.05 4.91,-0.34 1.8,-0.61 2.93,-2.3 3.39,-4.05 1.17,-2.62 1.44,-5.53 1.79,-8.33 2.05,4.07 4.57,7.88 6.86,11.82 2.29,-1.71 5.25,-2.44 7.86,-3.26 0.76,2.15 3.05,3.35 5.16,3.85 2.1,0.3 3.87,-1.19 4.85,-2.9 1.71,-2.51 2.33,-5.58 2.95,-8.46 1.24,-0.38 2.38,-1.01 3.63,-1.41 -0.12,3.77 -0.2,7.81 1.74,11.16 0.16,1 1.15,2.3 2.27,1.66 2.18,-2.08 4.64,-3.92 6.19,-6.52 0.53,2.53 2.89,4.27 5.33,4.8 2.39,0.7 5.26,-0.48 6.14,-2.85 0.36,-0.7 0.56,-1.44 0.79,-2.19 4.06,2.66 8.26,5.15 12.88,6.7 4.05,1.71 7.96,3.75 12.08,5.28 2.11,0.15 4.78,0.67 6.4,-1.06 1.04,-1.19 -0.01,-3.21 1.32,-4.21 0.65,-0.44 -0.32,-1.08 -0.81,-1.23 -0.78,-0.31 -1.61,-0.82 -2.31,-1.14 0.39,-0.34 0.7,-0.96 1.05,-1.2 1.39,1.72 3.6,3.04 5.9,3.01 2.66,-0.1 4.7,-2.18 6.2,-4.13 0.79,-0.93 1.2,-2.23 0.67,-3.39 -0.62,-1.2 -0.75,-2.5 -0.68,-3.82 -0.17,-1.6 0.21,-3.14 0.88,-4.58 0.97,-2.96 1.56,-6.03 2.5,-9 0.18,-0.63 0.32,-1.37 0.5,-1.93 1.36,0.89 3.07,0.93 4.64,0.75 0.03,7.33 -1.26,14.63 -0.93,21.95 0.49,2.99 3.6,5.58 6.73,4.77 2.98,-1.02 4.47,-4.19 5.1,-7.02 0.62,-2.82 0.7,-5.82 1.05,-8.59 0.25,0.49 1.19,0.52 0.9,1.21 -0.17,3.45 0.03,7.37 2.55,10 1.32,1.87 3.31,3.63 5.78,3.48 2.57,0.05 5.24,-0.08 7.68,-0.92 2.58,-1.06 4.23,-3.41 6.43,-5.01 2.08,-1.7 3.85,-3.72 5.27,-5.99 2.09,-2.53 3.96,-5.82 3.24,-9.23 -0.5,-3.65 -0.27,-7.62 -2.34,-10.85 -0.84,-1.44 -2.18,-2.45 -3.2,-3.75 -1.45,-1.62 -3.71,-2.06 -5.79,-2.24 -1.39,-0.13 -2.7,0.32 -3.95,0.79 -1.53,0.14 -2.99,-0.71 -4.55,-0.41 -2.37,0.14 -4.76,1.49 -5.68,3.71 -0.42,-1.45 -0.66,-3.01 -1.35,-4.35 -1.08,-1.47 -3.13,-1.39 -4.78,-1.6 -4.15,-0.22 -8.3,0.91 -12.44,0.33 -1.73,-0.08 -3.38,0.96 -4.16,2.41 -0.47,-1.97 -2,-4.15 -4.25,-4.03 -2.04,0.22 -3.55,1.78 -5.26,2.7 -2.51,1.99 -2.79,5.42 -3.19,8.34 -0.78,3.98 -2.7,7.65 -3.73,11.59 -0.25,0.74 -0.53,1.47 -0.91,2.16 -0.71,-4.55 0.36,-9.09 0.9,-13.59 0.25,-1.68 -0.85,-3.06 -1.88,-4.25 -0.81,-0.87 -1.19,-2 -1.73,-3.01 -1.78,-2.44 -6.33,-2.32 -7.56,0.6 -0.43,0.84 -0.91,1.65 -1.32,2.5 -1.08,-2.09 -2.55,-4.14 -4.58,-5.38 -0.97,-0.46 -2.17,-0.41 -2.84,-1.37 -0.94,-0.91 -2.23,-1.48 -3.57,-1.29 -3.47,-0.36 -7.09,-2.11 -10.55,-0.73 -5.08,1.9 -7.93,7.61 -7.25,12.83 0,0 0.14,-0.76 -0.95,-5.17 -0.39,-0.8 -1.48,-1 -1.82,-1.81 0.62,-2.42 -1.24,-4.92 -3.57,-5.54 -1.94,-1.09 -4.35,0.04 -5.59,1.67 -2.04,1.98 -4.9,3.01 -6.81,5.13 -1.35,1.9 -0.29,4.32 -1.08,6.38 -0.63,2.34 -1.85,4.47 -3.13,6.52 0.45,-4.26 0.75,-8.56 1.03,-12.84 -0.42,-2.62 -1.71,-5.1 -3.41,-7.13 -0.51,-0.48 -1.18,-0.88 -1.9,-0.82l0 0zm54.7 20.92c0.11,4.53 0.29,9.07 0.99,13.55 -3.79,-2.72 -7.72,-5.29 -11.34,-8.21 3.66,-1.68 7.36,-3.66 10.08,-6.67 0.48,-0.73 0.15,1.11 0.27,1.33z"/>
  <path fill="black" fill-rule="nonzero" d="M33.84 12.37c-2.08,0.67 -3.33,2.68 -4.54,4.37 -0.96,1.27 -1.96,2.55 -2.29,4.13 -0.71,2.84 -0.76,5.78 -1.18,8.66 0.08,1.43 -0.25,0.95 -0.66,-0.03 -0.79,-1.43 -1.15,-3.27 -0.14,-4.7 0.68,-1.27 0.89,-2.82 0.21,-4.14 -0.61,-2.15 -2,-4.58 -4.47,-4.84 -1.23,-0.11 -2.17,0.8 -3.07,1.44 -1.59,0.36 -3.55,-0.87 -4.89,0.47 -1.72,1.76 -3.11,3.98 -3.13,6.51 -0.46,3.73 -1.34,7.42 -1.23,11.21 -0.64,5.49 -3.15,10.69 -3.42,16.24 0.62,2.01 1.68,3.97 3.13,5.49 1.58,0.76 3.32,-0.04 4.91,-0.33 1.8,-0.62 2.93,-2.31 3.38,-4.06 1.18,-2.61 1.45,-5.52 1.8,-8.32 2.04,4.06 4.57,7.87 6.86,11.82 2.29,-1.72 5.25,-2.45 7.86,-3.26 0.76,2.15 3.05,3.35 5.16,3.85 2.1,0.29 3.87,-1.2 4.85,-2.9 1.71,-2.51 2.33,-5.58 2.95,-8.47 1.24,-0.38 2.38,-1.01 3.62,-1.41 -0.11,3.77 -0.19,7.81 1.75,11.16 0.15,1.01 1.15,2.3 2.27,1.66 2.18,-2.07 4.64,-3.91 6.19,-6.52 0.53,2.53 2.89,4.27 5.33,4.8 2.39,0.7 5.26,-0.48 6.14,-2.85 0.36,-0.7 0.56,-1.44 0.79,-2.19 4.06,2.67 8.26,5.16 12.88,6.71 4.05,1.7 7.96,3.74 12.07,5.27 2.12,0.15 4.79,0.67 6.41,-1.05 1.04,-1.19 -0.01,-3.22 1.32,-4.21 0.65,-0.45 -0.33,-1.09 -0.81,-1.23 -0.78,-0.31 -1.62,-0.82 -2.31,-1.15 0.39,-0.34 0.7,-0.95 1.05,-1.2 1.39,1.73 3.6,3.05 5.89,3.02 2.67,-0.11 4.7,-2.18 6.21,-4.14 0.79,-0.93 1.19,-2.23 0.66,-3.39 -0.61,-1.2 -0.74,-2.49 -0.68,-3.82 -0.16,-1.6 0.22,-3.14 0.89,-4.58 0.96,-2.96 1.56,-6.03 2.5,-9 0.18,-0.63 0.32,-1.37 0.5,-1.93 1.36,0.89 3.07,0.93 4.64,0.75 0.02,7.33 -1.26,14.63 -0.94,21.96 0.5,2.98 3.61,5.57 6.74,4.76 2.98,-1.02 4.47,-4.18 5.1,-7.02 0.62,-2.81 0.69,-5.81 1.05,-8.58 0.24,0.48 1.19,0.51 0.89,1.2 -0.17,3.45 0.04,7.37 2.56,10.01 1.32,1.86 3.31,3.62 5.77,3.47 2.58,0.05 5.24,-0.08 7.69,-0.91 2.57,-1.07 4.23,-3.41 6.43,-5.01 2.08,-1.71 3.85,-3.73 5.27,-5.99 2.09,-2.54 3.95,-5.83 3.24,-9.24 -0.51,-3.65 -0.27,-7.62 -2.34,-10.84 -0.84,-1.45 -2.18,-2.45 -3.21,-3.75 -1.44,-1.63 -3.7,-2.06 -5.78,-2.24 -1.39,-0.13 -2.7,0.31 -3.95,0.79 -1.53,0.13 -2.99,-0.72 -4.55,-0.42 -2.37,0.14 -4.76,1.5 -5.68,3.72 -0.42,-1.46 -0.66,-3.02 -1.35,-4.35 -1.08,-1.47 -3.13,-1.4 -4.78,-1.61 -4.16,-0.22 -8.31,0.92 -12.44,0.33 -1.73,-0.07 -3.39,0.97 -4.17,2.41 -0.46,-1.96 -1.99,-4.15 -4.25,-4.02 -2.03,0.22 -3.54,1.77 -5.26,2.69 -2.51,2 -2.78,5.42 -3.18,8.35 -0.79,3.98 -2.7,7.65 -3.73,11.58 -0.25,0.75 -0.53,1.47 -0.91,2.16 -0.71,-4.55 0.36,-9.09 0.9,-13.59 0.25,-1.68 -0.85,-3.05 -1.88,-4.25 -0.81,-0.87 -1.19,-2 -1.73,-3.01 -1.78,-2.44 -6.34,-2.32 -7.56,0.6 -0.44,0.84 -0.91,1.65 -1.32,2.5 -1.09,-2.08 -2.55,-4.13 -4.58,-5.38 -0.97,-0.46 -2.17,-0.4 -2.84,-1.36 -0.94,-0.92 -2.24,-1.49 -3.57,-1.3 -3.47,-0.36 -7.09,-2.11 -10.55,-0.73 -5.08,1.9 -7.93,7.61 -7.25,12.83 0.12,2.46 0.83,5.09 0.57,7.43 -0.28,-1.81 -0.33,-3.92 -0.52,-5.84 -0.22,-2.26 -0.36,-4.57 -1,-6.75 -0.4,-0.8 -1.48,-1.01 -1.83,-1.82 0.62,-2.42 -1.23,-4.91 -3.57,-5.54 -1.94,-1.08 -4.35,0.05 -5.59,1.67 -2.03,1.98 -4.89,3.01 -6.8,5.13 -1.35,1.9 -0.29,4.33 -1.09,6.38 -0.62,2.35 -1.85,4.47 -3.12,6.52 0.44,-4.26 0.75,-8.56 1.03,-12.83 -0.42,-2.63 -1.71,-5.11 -3.41,-7.14 -0.51,-0.48 -1.18,-0.87 -1.9,-0.81l-0.01 0zm37.74 12.85c0,-3.29 4.98,-3.29 4.98,0 0,3.95 -4.98,3.35 -4.98,0zm67.67 3.23c-0.47,1.46 -1.47,2.97 -2.3,4.05 0.01,-1.11 -0.03,-2.23 0.04,-3.35 0.77,-0.08 1.66,-0.45 2.26,-0.7zm-50.7 4.83c0.11,4.53 0.28,9.08 0.99,13.55 -3.79,-2.71 -7.72,-5.29 -11.34,-8.21 3.66,-1.68 7.35,-3.66 10.08,-6.66 0.48,-0.74 0.14,1.1 0.27,1.32zm67.83 1.82c0,4.11 -6.51,9.88 -8.32,9.88 -1.66,0 -1.66,-1.65 -1.66,-6.59 0,-4.97 3.32,-8.23 6.65,-8.23 3.12,0 3.33,0.83 3.33,4.94l0 0z"/>
  <path fill="white" fill-rule="nonzero" d="M33.87 13.67c-1.97,1.17 -2.95,3.42 -4.47,5.07 -1.75,2.42 -1.4,5.55 -1.99,8.33 -0.46,3.41 -0.33,7.09 -0.78,10.36 -1.25,-1.36 -0.72,-3.36 -1.54,-4.92 -0.72,-2.16 -2.49,-4.21 -1.97,-6.59 0.21,-1.37 1.59,-2.43 1.12,-3.9 -0.38,-1.08 -0.65,-2.21 -1.17,-3.21 -0.61,-0.79 -1.5,-1.6 -2.53,-1.7 -1.19,0.07 -1.62,1.54 -2.84,1.48 -1.24,0.16 -2.47,-0.15 -3.71,-0.2 -1.41,1.62 -3.05,3.41 -2.89,5.7 -0.44,3.5 -1.45,6.97 -1.22,10.53 -0.47,5.69 -2.98,11.05 -3.56,16.73 0.31,1.59 1.48,2.83 2.1,4.3 0.54,0.97 1.75,0.34 2.59,0.31 1.58,-0.2 3.57,-0.95 3.76,-2.73 0.7,-1.6 1.43,-3.2 1.62,-4.96 0.31,-2.12 0.58,-4.23 0.85,-6.35 -0.26,-0.7 0.74,-0.37 1.11,-0.38 0.36,0.33 0.38,1.12 0.72,1.56 1.87,3.93 4.28,7.58 6.49,11.33 2.23,-1.36 4.82,-1.94 7.28,-2.77 1.33,-3.03 1.32,-6.42 2.32,-9.54 0.49,1.59 1.13,3.49 0,4.99 -0.82,1.07 -1.6,2.39 -1.18,3.78 0.02,1.23 0.26,2.63 1.47,3.26 1.23,0.98 3.12,2.01 4.65,1.04 2.37,-1.74 3.18,-4.78 4.02,-7.44 0.32,-1.02 0.31,-2.19 0.62,-3.16 1.04,-0.42 2.08,-0.79 3.09,-1.26 0.99,-0.38 1.98,-0.79 3.04,-0.88 0.19,3.35 -0.46,6.86 0.69,10.08 0.42,1.08 0.95,2.11 1.39,3.19 2.3,-2.18 4.93,-4.24 6.32,-7.14 0.71,-2.43 1.19,-5.01 0.56,-7.51 -0.15,-0.77 0.08,-1.68 0.59,-2.2 0.03,1.37 1.12,2.32 2.02,3.21 0.33,0.54 -0.05,1.19 0.13,1.8 0.07,0.87 -0.21,1.96 -1.17,2.2 -0.8,0.72 -0.18,1.87 -0.46,2.78 -0.07,2.07 1.32,4.15 3.39,4.63 1.55,0.75 3.79,0.95 4.93,-0.57 1.19,-1.32 1.42,-3.19 2,-4.76 1.22,0.65 2.35,1.47 3.57,2.16 2.71,1.86 5.55,3.46 8.66,4.53 4.58,1.86 9.01,4.09 13.57,5.97 1.61,0.13 3.37,0.4 4.89,-0.16 1.26,-0.97 0.22,-2.78 1.13,-3.92 -8.38,-4.06 -15.63,-9.93 -23.28,-15.17 -1.04,-0.83 -2.35,-1.5 -3.05,-2.65 -0.21,-1.14 1.23,-1.71 2.07,-2.08 3.62,-1.71 7.21,-3.82 9.54,-7.13 1,-0.96 1.31,-2.35 1.17,-3.69 -0.02,-2.17 -0.92,-4.25 -2.39,-5.83 -0.92,-1.39 -2.2,-2.91 -4.04,-2.84 -1.31,-0.49 -1.98,-2.34 -3.58,-2.12 -2.91,-0.14 -5.7,-1.24 -8.62,-1.36 -3.09,0.36 -5.92,2.41 -7.25,5.21 -1.05,2.02 -1.53,4.33 -1.22,6.61 0.14,2.72 0.74,5.43 0.63,8.15 -0.05,1 -0.78,1.63 -1.54,2.12 -0.2,0.1 0.01,-0.8 -0.14,-1.13 -0.07,-0.41 -0.86,-0.22 -1,-0.77 -0.27,-1.02 -0.11,-2.12 -0.31,-3.17 -0.35,-3.07 -0.43,-6.21 -1,-9.23 -0.55,-0.99 -2.05,-1.3 -2.19,-2.53 0.72,-1.79 -0.53,-3.94 -2.43,-4.27 -0.9,-0.75 -2.21,-0.67 -3.1,0.06 -1.67,1.4 -3.21,2.92 -5.15,3.97 -1.24,0.91 -3.1,1.65 -3.24,3.39 -0.14,1.51 0.29,3.1 -0.39,4.52 -1.15,4.16 -3.64,7.72 -6.17,11.18 -0.6,1.22 -0.36,0.29 -0.18,-0.55 0.8,-4.53 0.91,-9.14 1.4,-13.71 0.01,-1.63 0.65,-3.35 -0.2,-4.86 -0.74,-1.86 -1.49,-3.91 -3.11,-5.16 -0.14,-0.04 -0.29,-0.05 -0.44,-0.03l0 0zm80.61 2.49c-1.4,0.39 -2.51,1.44 -3.82,2.06 -1.6,1 -2.5,2.78 -2.72,4.62 -0.55,3.03 -0.93,6.12 -2.26,8.94 -0.93,2.19 -1.46,4.51 -2.24,6.74 -0.66,1.37 -1.22,2.97 -2.44,3.97 -0.34,-0.02 -0.4,-0.73 -0.58,-0.99 -0.45,-1.71 -0.4,-3.54 -0.53,-5.31 -0.04,-3.61 0.85,-7.15 1.22,-10.71 -0.35,-2.05 -2.56,-3.13 -3.02,-5.14 -0.47,-1.11 -1.59,-2.03 -2.86,-1.84 -1.07,-0.21 -2.33,0.23 -2.68,1.32 -1.32,2 -2.3,4.25 -2.78,6.59 0.04,6.7 0.17,13.43 1.01,20.08 0.3,2 1.54,3.73 3.28,4.75 1.43,0.87 2.91,1.74 4.19,2.8 1.33,0.61 2.72,-0.46 3.27,-1.62 0.34,-0.58 1.42,-1.19 1.82,-0.32 1.23,1.65 3.19,2.88 5.29,2.95 2.2,-0.32 3.78,-2.13 5.13,-3.73 0.69,-0.77 0.72,-1.98 0.04,-2.75 -0.67,-1.78 -0.23,-3.72 -0.48,-5.55 0.37,-1.96 1.54,-3.68 1.74,-5.68 1,-4.17 2.73,-8.22 2.75,-12.58 0.02,-0.12 0.08,0.85 0.2,1.21 0.14,1.32 1.01,2.65 2.42,2.84 1.36,0.35 2.77,0.04 4.12,-0.11 0.18,6.25 -0.76,12.45 -0.88,18.69 -0.04,2.24 -0.66,4.88 0.98,6.73 1.11,1.38 3.23,2.24 4.84,1.18 2.01,-1.29 2.85,-3.7 3.46,-5.87 0.45,-3.47 0.78,-6.97 1.12,-10.46 -0.24,-1.66 1.39,-2.72 1.37,-4.33 0.37,-2.22 0.06,-4.57 0.25,-6.73 1.72,0 3.96,-0.58 4.45,-2.46 0.37,-1.49 0.33,-3.08 -0.33,-4.49 -0.54,-0.94 -0.15,-2.63 -1.45,-2.97 -2.69,-0.76 -5.57,-0.57 -8.33,-0.31 -2.32,0.4 -4.67,0.39 -7,0.15 -1.35,-0.15 -2.53,0.68 -3.12,1.83 -0.73,1.36 -1.95,2.56 -2.08,4.15 -0.04,-1.79 0,-3.66 -0.54,-5.36 -0.58,-1.06 -1.37,-2.43 -2.81,-2.29l0 0zm40.64 3.13c-1.7,0.02 -3.31,1.48 -5,0.68 -2.15,-0.54 -4.74,-0.31 -6.42,1.21 -0.99,1.24 -1.53,2.76 -2.21,4.17 -0.74,2.03 -0.85,4.32 -2.23,6.08 -1.07,1.7 -2.26,3.34 -3.17,5.12 -0.41,1.1 -0.58,2.41 -0.16,3.52 0.24,0.6 0.9,0.81 1.39,1.08 0.25,2.35 -0.13,4.8 0.45,7.12 0.7,2.32 2.4,4.23 4.16,5.83 1.19,0.76 2.78,0.59 4.16,0.59 2.6,-0.17 5.51,-0.19 7.53,-2.05 2.32,-2.43 5.32,-4.22 7.39,-6.86 1.12,-1.93 2.65,-3.58 3.82,-5.46 0.86,-1.83 1.34,-3.91 0.78,-5.91 -0.32,-3.15 -0.27,-6.5 -1.8,-9.36 -0.92,-1.6 -2.53,-2.67 -3.54,-4.21 -1.43,-1.15 -3.4,-1.36 -5.15,-1.55l0 0zm-82.13 4.58c1.17,0.25 2.66,0.53 3.33,1.6 -0.37,1.05 -1.72,1.31 -2.64,1.68 -0.99,0.54 -1.24,0.09 -1.1,-0.88 -0.02,-0.82 -0.04,-1.65 0.01,-2.47 0.13,0.02 0.27,0.05 0.4,0.07l0 0zm81.24 6.7c0.88,-0.04 1.03,0.95 1.01,1.61 0.17,2.04 0.62,4.38 -0.67,6.16 -1.43,2.26 -3.03,4.56 -5.29,6.02 -0.52,0.26 -1.46,0.78 -1.69,-0.1 -0.74,-1.77 -0.42,-3.8 -0.26,-5.66 0.39,-2.54 1.29,-5.03 2.66,-7.19 1.07,-1.13 2.87,-0.54 4.24,-0.84l0 0z"/>
  <path fill="url(#id1)" fill-rule="nonzero" d="M8.82 54.31c-0.28,-0.48 -0.75,-1.37 -1.04,-1.97l-0.53 -1.09 0.62 -3.01c0.35,-1.66 0.66,-3.08 0.71,-3.15 0.04,-0.07 0.22,-0.65 0.4,-1.3 0.78,-2.9 1.06,-4.05 1.2,-4.89 0.08,-0.5 0.27,-1.35 0.43,-1.89 0.18,-0.63 0.28,-1.95 0.28,-3.62 0,-1.92 0.12,-3.14 0.42,-4.52 0.23,-1.04 0.46,-2.21 0.5,-2.6 0.55,-4.54 0.43,-4.14 1.57,-5.55l1.05 -1.3 1.19 0.13c0.65,0.08 1.69,0.07 2.32,-0.01 0.93,-0.11 1.28,-0.27 1.82,-0.81l0.68 -0.66 0.82 0.45c0.94,0.52 0.93,0.49 1.62,2.63l0.52 1.59 -0.71 1.5c-0.64,1.36 -0.7,1.64 -0.63,2.92 0.06,1.24 0.2,1.68 1.13,3.49 0.99,1.94 1.35,3.11 1.77,5.77 0.1,0.64 0.36,1.05 1.22,1.89 0.6,0.59 1.14,1.03 1.19,0.98 0.18,-0.18 0.57,-4.59 0.73,-8.3 0.1,-2.28 0.29,-4.3 0.48,-5.02 0.18,-0.66 0.32,-1.6 0.33,-2.1 0.02,-2.05 0.47,-3.43 1.59,-4.91 1.85,-2.44 3.36,-4.31 3.5,-4.31 0.3,0 1.84,2.73 2.36,4.19l0.56 1.57 -0.26 2.78c-0.14,1.53 -0.45,5.04 -0.68,7.79 -0.23,2.76 -0.58,5.74 -0.78,6.62 -0.94,4.07 -1.26,5.38 -1.34,5.51 -0.05,0.08 -0.21,0.86 -0.37,1.73 -0.72,3.97 -1.22,6.09 -1.43,6.09 -0.42,0 -4.54,1.38 -5.34,1.78l-0.79 0.4 -2.61 -4.32c-1.44,-2.38 -2.94,-5.14 -3.35,-6.13 -0.4,-0.99 -0.86,-1.88 -1.01,-1.98 -0.15,-0.09 -0.79,-0.17 -1.41,-0.17l-1.14 -0.01 -0.12 0.96c-0.92,7.41 -1.25,9.19 -1.89,10.1 -0.28,0.41 -0.56,1.11 -0.62,1.57 -0.1,0.74 -0.21,0.87 -1.06,1.3 -0.52,0.26 -1.5,0.54 -2.17,0.61l-1.21 0.14 -0.52 -0.87 0 0z"/>
  <path fill="url(#id2)" fill-rule="nonzero" d="M38.58 54.59c-1.36,-0.23 -2.55,-1.11 -3.45,-2.09 0.06,-1.35 -0.72,-2.93 0.33,-4.05 0.57,-0.99 1.56,-1.95 1.25,-3.26 0.32,-1.48 -0.8,-3.01 -0.67,-4.23 0.65,-1.36 1.23,-2.72 2.16,-3.88 0.95,-1.06 1.59,-2.23 2.35,-3.4 0.85,-1.26 1.51,-2.63 2.05,-4.02 0.47,-1.38 1.17,-2.83 1.33,-4.35 0.34,-1.39 -0.67,-3.53 0.93,-4.31 0.87,-0.61 1.74,-1.16 2.59,-1.73 1.54,-0.91 2.81,-2.2 4.21,-3.29 0.78,-0.85 1.59,-0.91 2.51,-0.09 1.77,0.29 2.18,1.64 1.68,3.18 -0.07,1.58 1.76,2.16 2.44,3.22 0.1,1.99 0.39,3.94 0.51,5.93 0.19,1.78 0.36,3.52 0.51,5.3 -0.1,0.97 0.42,1.59 1.11,1.84 0.12,1.73 -0.98,3.06 -1.69,4.46 0.07,1.67 0.52,3.32 0.39,5 -0.42,1.32 -0.46,2.75 -0.99,4.04 -1.43,1.87 -3.05,3.64 -4.82,5.2 -0.61,-1.39 -1.39,-2.86 -1.38,-4.41 -0.06,-2.74 -0.06,-5.48 -0.08,-8.21 -1.97,-0.15 -3.76,0.77 -5.56,1.41 -0.94,0.75 -2.94,0.48 -2.68,2.17 -0.2,1.65 -0.57,3.28 -1.22,4.77 -0.39,1.25 -0.97,2.56 -1.84,3.62 -0.55,0.5 -1.08,1.49 -1.97,1.18l0 0zm12.2 -20.73c0.79,0.03 0.14,-1.1 0.29,-1.58 0.06,-0.81 -0.08,-2.29 -0.93,-0.96 -0.13,0.88 -2.08,2.95 -0.26,2.64 0.3,-0.03 0.6,-0.06 0.9,-0.1z"/>
  <path fill="url(#id3)" fill-rule="nonzero" d="M96.94 59.79c-1.98,-0.95 -4.04,-1.86 -6.05,-2.79 -2.33,-1 -4.69,-2.13 -7.08,-3.08 -2.22,-0.95 -4.55,-1.65 -6.43,-3.2 -1.92,-1.09 -3.76,-2.37 -5.68,-3.47 -1.85,-0.77 -1.43,1.61 -2.03,2.63 -0.53,1.86 -1.59,3.85 -3.88,3.05 -1.33,-0.48 -2.77,-0.71 -3.43,-2.17 -0.64,-1.15 -0.25,-2.61 -0.37,-3.9 1.74,-0.61 1.6,-2.33 1.5,-3.89 0.56,-1.71 -1.37,-2 -1.77,-3.3 -0.74,-0.88 -0.11,-2.37 0.56,-3.12 2.15,-0.91 1.92,-3.58 1.64,-5.52 -0.18,-2.38 -0.43,-4.74 -0.61,-7.13 -0.05,-1.69 0.73,-3.25 1.44,-4.72 0.86,-1.71 2.26,-3.05 4.08,-3.65 1.88,-1.29 4.25,-0.42 6.23,0.05 1.72,0.32 3.47,0.56 5.23,0.72 0.97,0.87 1.77,2.13 3.22,2.1 1.73,0.12 2.29,2.04 3.33,3.07 1.31,1.43 1.82,3.43 1.62,5.34 0.15,0.92 -0.16,1.63 -0.88,2.22 -1.14,1.33 -2.1,2.84 -3.7,3.71 -1.7,1.46 -3.83,2.26 -5.76,3.39 -1.69,0.44 -3.47,2.51 -1.74,3.97 1.26,1.29 2.83,2.3 4.33,3.32 2.94,2.14 5.91,4.16 8.88,6.24 2.5,1.82 4.96,3.59 7.7,5.05 1.53,0.82 2.93,1.79 4.48,2.49 -0.32,0.84 0.23,2.56 -0.62,2.78 -1.4,-0.06 -2.84,0.12 -4.21,-0.19l0 0zm-24.69 -31.23c1.76,-0.48 3.74,-0.83 4.88,-2.36 1.2,-1.93 -2.55,-3.06 -4.06,-3.33 -1.13,-0.37 -1.77,0.42 -1.48,1.46 0.02,1.46 -0.04,2.93 0.08,4.38l0.2 -0.05 0.38 -0.1 0 0z"/>
  <path fill="url(#id4)" fill-rule="nonzero" d="M108.07 54.1c-1.46,-0.55 -3.06,-1.17 -3.89,-2.57 -0.52,-1.22 -2.69,-1.01 -3.21,0.07 -0.83,1.1 -1.77,2.52 -2.94,0.93 -1.23,-0.88 -2.6,-1.51 -3.85,-2.38 -1.12,-0.95 -2.24,-2.02 -2.3,-3.56 -0.49,-1.71 -0.47,-3.53 -0.65,-5.31 -0.2,-5.06 -0.56,-10.12 -0.46,-15.19 0.42,-1.19 0.91,-2.4 1.38,-3.59 0.42,-1 1.21,-1.9 1.69,-2.84 0.39,-0.39 1.37,-0.04 1.97,-0.16 1.32,0.12 1.43,2.04 2.25,2.94 0.63,1.33 2.48,2.27 2,3.91 -0.36,2.12 -0.81,4.23 -0.93,6.37 -0.4,2.51 -0.28,5.1 0.09,7.6 -0.11,1.15 0.71,3 1.62,3.32 1.1,-0.39 1.98,-1.29 2.33,-2.45 1.14,-1.65 1.74,-3.57 2.18,-5.5 0.26,-1.16 0.81,-2.17 1.19,-3.31 0.58,-1.57 1.14,-3.15 1.59,-4.74 0.28,-1.42 0.43,-2.79 0.68,-4.22 0.42,-1.48 0.6,-3.34 2.15,-4.1 0.84,-0.85 2,-1.15 2.94,-1.87 1.34,-1.04 2.07,0.75 2.64,1.69 0.44,3.42 0.39,6.94 -0.29,10.33 -0.29,1.35 -0.8,2.63 -1.19,3.94 -0.38,1.4 -0.73,2.87 -1.1,4.31 -0.31,1.4 -0.82,2.74 -1.36,4.02 -0.63,1.23 -0.08,2.74 -0.17,4.09 0.02,1.35 0.01,2.81 0.9,3.9 0.04,1.18 -1.59,2.07 -2.23,3.1 -0.94,0.48 -1.93,1.41 -3.03,1.27l0 0z"/>
  <path fill="url(#id5)" fill-rule="nonzero" d="M127 54.69c-1.13,-0.63 -2.26,-1.68 -2.43,-2.98 -0.03,-2.37 0.06,-4.74 0.25,-7.1 0.03,-2.2 0.31,-4.38 0.33,-6.58 0.33,-1.86 0.22,-3.77 0.42,-5.65 0.03,-1.55 0.11,-3.11 -0.08,-4.65 -1.57,-0.22 -3.14,0.62 -4.7,0.07 -1.68,0.07 -1.81,-1.91 -1.91,-3.15 -0.42,-1.38 0.71,-2.42 1.29,-3.53 0.71,-0.91 1.2,-2.57 2.65,-2.26 1.72,-0.01 3.45,0.19 5.17,0.12 2.09,-0.42 4.22,-0.56 6.36,-0.49 1.33,-0.07 2.64,0.1 3.89,0.52 0.25,0.97 0.46,1.92 0.76,2.87 0.72,1.12 0.27,2.41 0.08,3.59 -0.46,1.24 -2.29,1.25 -3.43,1.52 -1.05,-0.14 -1.11,0.53 -1.01,1.31 -0.03,1.77 0.08,3.56 -0.1,5.32 -0.05,1.17 -0.22,2.27 -1.06,3.17 -0.63,1.16 -0.26,2.64 -0.56,3.92 -0.24,2.12 -0.54,4.24 -0.64,6.37 -0.36,1.05 -0.03,2.37 -0.71,3.3 -0.35,1.31 -0.94,2.48 -1.87,3.48 -0.52,0.76 -1.83,1.14 -2.7,0.83l0 0z"/>
  <path fill="url(#id6)" fill-rule="nonzero" d="M143.6 53.64c-0.56,-0.02 -1.09,-0.09 -1.4,-0.6 -1.1,-1.11 -2.16,-2.26 -2.85,-3.64 -0.81,-1.12 -0.93,-2.49 -0.88,-3.88 -0.09,-1.65 0.02,-3.33 -0.28,-4.96 -0.45,-0.54 -1.72,-0.54 -1.43,-1.48 -0.02,-1.02 -0.08,-2.07 0.68,-2.86 1.1,-1.84 2.22,-3.63 3.36,-5.45 0.9,-1.27 0.88,-2.86 1.36,-4.31 0.47,-1.6 1.44,-2.99 2.09,-4.49 0.94,-0.9 2.4,-1.26 3.7,-1.23 1.63,-0.36 3.06,1.13 4.63,0.19 1.32,-0.33 2.68,-1.05 4.02,-0.41 1.38,0.24 2.88,0.44 3.59,1.8 0.89,1.31 2.38,2.19 3.02,3.65 0.43,1.5 1,2.98 1.08,4.55 0.14,1.57 0.18,3.18 0.41,4.75 0.58,1.41 -0.22,2.8 -0.53,4.15 -0.44,1.34 -1.69,2.27 -2.41,3.42 -0.69,1.04 -1.35,2.07 -2.04,3.11 -2.51,2.17 -5.03,4.34 -7.53,6.53 -1.19,0.79 -2.78,0.94 -4.2,1.11 -1.47,0.03 -2.93,0.22 -4.39,0.05l0 0zm4.5 -7.89c1.44,-0.18 2.72,-0.98 3.64,-2.12 1.38,-1.49 2.76,-3.02 3.67,-4.85 0.83,-0.9 1.12,-2.1 0.98,-3.34 0.04,-1.65 0.02,-3.32 -0.47,-4.91 -0.49,-1.16 -2.19,-0.97 -3.26,-0.82 -1.42,-0.05 -3.3,0.17 -3.81,1.74 -0.77,1.51 -1.67,2.97 -2.01,4.66 -0.49,1.55 -0.49,3.2 -0.77,4.79 0.23,1.28 0,2.72 0.63,3.88 0.5,0.31 0.6,1.46 1.4,0.97l0 0z"/>
  <path fill="red" fill-rule="nonzero" d="M148.02 60.1l-2.49 0c-2.46,2.87 -6.92,9.66 -6.92,9.66l2.76 0.06 3.5 -5.11 2.99 2.14 2.33 -1.98c-0.84,-0.98 -2.33,-1.97 -4.16,-2.3l1.99 -2.47 0 0zm-25.27 0.33l-1.5 2.14 -4.98 0 -1.17 1.65 3.99 0c0.67,0 0.74,0.57 0.5,0.82 -1.25,1.36 -2.99,3.29 -6.32,3.29l0.83 1.49c2.83,0 5.31,-2.1 6.52,-3.21 1.21,-1.11 1.96,-2.23 1.96,-2.23l4.49 0 1.33 -1.81 -4.15 0 1.49 -2.14 -2.99 0zm11.97 0.16c-1.4,3.04 -5.98,8.4 -5.98,8.4l1.33 0.83c2.82,-0.5 7.81,-3.3 9.81,-4.94l-1 -1.49c0,0 -4.06,3.13 -5.49,3.13 0,0 3.83,-5.93 3.83,-5.93l-2.5 0 0 0zm-0.83 0.17l-2.49 0c-0.33,1.32 -4.99,7.41 -7.82,8.07l1.33 0.99c2.73,-1.17 7.75,-6.3 8.98,-9.06l0 0zm-25.94 2.63l-1.16 1.98 5.65 0 1.33 -1.98 -5.82 0zm45.23 0l-1.16 1.98 5.98 0 1.16 -1.98 -5.98 0z"/>
 </g>
</svg>
